<svg width="30" height="30" viewBox="0 0 30 30" fill="none" xmlns="http://www.w3.org/2000/svg">
<path d="M20.1011 23.1927C19.493 22.6049 19.493 21.652 20.1011 21.0642V21.0642C20.7092 20.4765 21.6951 20.4765 22.3032 21.0642L28.1754 26.7401C28.7835 27.3279 28.7835 28.2808 28.1754 28.8686V28.8686C27.5673 29.4563 26.5814 29.4563 25.9733 28.8686L20.1011 23.1927Z" fill="#B44CCF"/>
<path d="M21.5 11.5C21.5 17.0228 17.0228 21.5 11.5 21.5C5.97715 21.5 1.5 17.0228 1.5 11.5C1.5 5.97715 5.97715 1.5 11.5 1.5C17.0228 1.5 21.5 5.97715 21.5 11.5Z" stroke="#B44CCF" stroke-width="3"/>
</svg>
